<?xml version="1.0" encoding="UTF-8"?>
<!DOCTYPE svg PUBLIC "-//W3C//DTD SVG 1.1//EN" "http://www.w3.org/Graphics/SVG/1.1/DTD/svg11.dtd">
<!-- Creator: CorelDRAW X6 -->
<svg xmlns="http://www.w3.org/2000/svg" xml:space="preserve" width="275mm" height="46mm" version="1.1" style="shape-rendering:geometricPrecision; text-rendering:geometricPrecision; image-rendering:optimizeQuality; fill-rule:evenodd; clip-rule:evenodd"
viewBox="0 0 27500 4600"
 xmlns:xlink="http://www.w3.org/1999/xlink">
 <defs>
  <style type="text/css">
   <![CDATA[
    .fil0 {fill:#ffffff}
    .fil1 {fill:#ffffff;fill-rule:nonzero}
   ]]>
  </style>
    <clipPath id="id0">
     <path d="M-343 -278l28161 -39 0 5157 -28161 39 0 -5157z"/>
    </clipPath>
 </defs>
 <g id="Camada_x0020_1">
  <metadata id="CorelCorpID_0Corel-Layer"/>
  <g id="_398278600">
   <g style="clip-path:url(#id0)">
    <image transform="matrix(1 0 0 1 -14092.8 2578.87)" x="13750" y="-2896" width="28161" height="5196" xlink:href="trademark_Images\trademark_ImgID1.png"/>
   </g>
  </g>
  <g id="_398276248">
   <path class="fil0" d="M447 2609l335 0c289,0 536,-103 742,-309 204,-204 306,-450 306,-739 0,-290 -102,-537 -306,-741 -206,-206 -453,-309 -742,-309l-335 0 0 2098zm-454 454l0 -3004 789 0c415,0 769,147 1063,441 292,294 439,648 439,1062 0,413 -146,767 -439,1061 -294,294 -648,441 -1063,441l-789 0zm3948 -3004l-1900 3004 540 0 443 -702 1021 0 0 702 458 0 0 -3004 -561 0zm103 690l0 1158 -733 0 733 -1158zm2701 -690l0 2148 -1283 -2148 -477 0 0 3004 455 0 0 -2148 1285 2148 477 0 0 -3004 -457 0zm1392 4l-456 0 0 3001 456 0 0 -3001zm498 -4l0 3004 1532 0 0 -456 -1077 0 0 -823 831 0 0 -456 -831 0 0 -815 1077 0 0 -455 -1532 0zm1898 0l0 3004 1532 0 0 -456 -1077 0 0 -2549 -455 0zm1898 0l0 3004 1532 0 0 -456 -1077 0 0 -2549 -455 0zm3550 0l-1900 3004 540 0 443 -702 994 0 0 -455 -707 0 707 -1116 0 -732 -77 0z"/>
   <path class="fil1" d="M270 3438c179,1 319,51 417,151 109,110 164,241 164,395 0,155 -55,287 -164,396 -99,99 -238,149 -417,150l-202 0 0 -1091 202 0zm-140 64l0 964 140 0c157,0 281,-44 371,-131 97,-97 145,-214 145,-351 0,-137 -48,-254 -145,-351 -91,-87 -214,-130 -371,-130l-140 0zm1376 -80c155,0 287,55 396,164 109,109 164,241 164,396 0,155 -55,287 -164,396 -109,109 -241,164 -396,164 -154,0 -286,-55 -396,-164 -109,-109 -164,-241 -164,-396 0,-154 55,-286 164,-396 109,-109 241,-164 396,-164zm0 62c-137,0 -254,49 -351,146 -97,97 -146,214 -146,351 0,137 49,255 146,352 97,97 214,146 351,146 137,0 255,-48 352,-146 97,-97 146,-215 146,-352 0,-137 -48,-254 -146,-351 -97,-97 -215,-146 -352,-146zm1552 870l47 42c-107,97 -232,145 -376,145 -155,0 -287,-55 -396,-163 -109,-109 -163,-240 -163,-395 0,-154 54,-286 163,-395 109,-109 241,-164 396,-164 144,0 269,48 376,146l-47 42c-94,-83 -203,-124 -329,-124 -137,0 -254,48 -351,145 -97,97 -145,213 -145,350 0,137 48,254 145,351 97,97 214,145 351,145 126,0 235,-41 329,-124zm727 -918l0 62 -484 0 0 453 484 0 0 62 -484 0 0 453 484 0 0 62 -545 0 0 -1091 545 0zm469 487c-78,-26 -139,-61 -184,-106 -45,-45 -67,-100 -67,-164 0,-63 23,-117 67,-162 45,-45 100,-68 164,-68 63,0 118,23 164,68 25,24 42,51 52,81l-56 22c-8,-22 -22,-42 -40,-61 -33,-33 -73,-50 -120,-50 -47,0 -87,17 -120,50 -33,33 -50,73 -50,120 0,47 17,87 50,120 31,30 73,58 128,83 87,28 161,72 221,132 63,63 94,139 94,228 0,90 -32,166 -95,229 -63,63 -139,95 -228,95 -90,0 -166,-32 -228,-96 -51,-50 -81,-109 -91,-176l58 -21c6,59 31,111 76,154 51,52 114,77 186,77 72,0 135,-26 186,-77 51,-51 77,-113 77,-186 0,-72 -26,-134 -77,-185 -45,-45 -101,-81 -166,-108zm1301 -487l0 62 -416 0 0 453 416 0 0 62 -416 0 0 515 -62 0 0 -1091 478 0zm196 0l0 1091 -62 0 0 -1091 62 0zm256 0l725 1016 0 -1016 62 0 0 1091 -95 0 -708 -992 0 992 -62 0 0 -1091 78 0zm1479 -15c155,0 287,55 396,164 109,109 164,241 164,396 0,155 -55,287 -164,396 -109,109 -241,164 -396,164 -154,0 -286,-55 -396,-164 -109,-109 -164,-241 -164,-396 0,-154 55,-286 164,-396 109,-109 241,-164 396,-164zm0 62c-137,0 -254,49 -351,146 -97,97 -146,214 -146,351 0,137 49,255 146,352 97,97 214,146 351,146 137,0 255,-48 352,-146 97,-97 146,-215 146,-352 0,-137 -48,-254 -146,-351 -97,-97 -215,-146 -352,-146zm990 440c-78,-26 -139,-61 -184,-106 -45,-45 -67,-100 -67,-164 0,-63 23,-117 67,-162 45,-45 100,-68 164,-68 63,0 118,23 164,68 25,24 42,51 52,81l-56 22c-8,-22 -22,-42 -40,-61 -33,-33 -73,-50 -120,-50 -47,0 -87,17 -120,50 -33,33 -50,73 -50,120 0,47 17,87 50,120 31,30 73,58 128,83 87,28 161,72 221,132 63,63 94,139 94,228 0,90 -32,166 -95,229 -63,63 -139,95 -228,95 -90,0 -166,-32 -228,-96 -51,-50 -81,-109 -91,-176l58 -21c6,59 31,111 76,154 51,52 114,77 186,77 72,0 135,-26 186,-77 51,-51 77,-113 77,-186 0,-72 -26,-134 -77,-185 -45,-45 -101,-81 -166,-108zm1366 379c-6,-3 -11,-6 -17,-9 -22,-12 -49,-35 -82,-69 -22,-20 -37,-33 -46,-38 -10,-5 -20,-8 -30,-8 -6,0 -11,1 -17,2 -16,4 -29,14 -37,28 -6,10 -9,20 -9,30 0,6 1,11 2,17 5,16 14,28 27,35 9,5 21,7 35,7 8,0 18,-1 28,-2l-6 56c-11,3 -23,5 -34,5 -18,0 -36,-5 -53,-14 -27,-16 -45,-39 -54,-71 -3,-11 -4,-22 -4,-33 0,-20 5,-40 16,-58 17,-29 42,-48 73,-56 11,-3 22,-5 33,-5 20,0 39,6 58,16 18,10 42,30 71,61 26,24 46,39 58,46 14,8 28,12 42,12 8,0 16,-1 25,-4 23,-6 42,-20 54,-42 8,-14 12,-28 12,-42 0,-8 -1,-16 -4,-24 -6,-23 -20,-41 -41,-53 -13,-7 -27,-11 -43,-11 -11,0 -23,2 -36,5l-1 -61c13,-4 26,-6 38,-6 24,0 48,7 71,20 36,20 59,50 70,89 3,14 5,27 5,40 0,25 -6,48 -19,71 -20,36 -50,59 -90,70 -12,3 -23,5 -34,5 -15,49 -42,93 -81,132 -63,64 -140,96 -229,96 -89,0 -165,-32 -228,-95 -63,-63 -95,-140 -95,-229 0,-89 31,-166 93,-233 43,-46 98,-80 167,-104 -33,-14 -66,-39 -101,-76 -34,-37 -51,-87 -51,-151 0,-63 22,-117 67,-162 45,-45 100,-68 163,-68 64,0 118,23 164,68 25,24 42,51 52,81l-55 22c-8,-22 -22,-42 -40,-61 -33,-33 -73,-50 -120,-50 -47,0 -87,17 -120,50 -33,33 -50,73 -50,120 0,47 16,87 48,121 32,34 62,56 89,67 27,10 61,16 102,16l0 58 -49 1c-100,19 -175,56 -224,110 -50,55 -75,118 -75,190 0,73 26,135 77,186 51,52 113,77 186,77 72,0 134,-26 185,-77 30,-30 51,-63 64,-100zm1295 -866l0 62 -484 0 0 453 484 0 0 62 -484 0 0 453 484 0 0 62 -545 0 0 -1091 545 0zm844 0l65 0 -392 1091 -38 0 -392 -1091 65 0 347 980 346 -980zm697 0l0 62 -484 0 0 453 484 0 0 62 -484 0 0 453 484 0 0 62 -545 0 0 -1091 545 0zm249 0l725 1016 0 -1016 62 0 0 1091 -95 0 -708 -992 0 992 -62 0 0 -1091 78 0zm1233 62l0 1029 -61 0 0 -1029 -276 0 0 -62 613 0 0 62 -276 0zm852 -77c155,0 287,55 396,164 109,109 164,241 164,396 0,155 -55,287 -164,396 -109,109 -241,164 -396,164 -154,0 -286,-55 -396,-164 -109,-109 -164,-241 -164,-396 0,-154 55,-286 164,-396 109,-109 241,-164 396,-164zm0 62c-137,0 -254,49 -351,146 -97,97 -146,214 -146,351 0,137 49,255 146,352 97,97 214,146 351,146 137,0 255,-48 352,-146 97,-97 146,-215 146,-352 0,-137 -48,-254 -146,-351 -97,-97 -215,-146 -352,-146zm990 440c-78,-26 -139,-61 -184,-106 -45,-45 -67,-100 -67,-164 0,-63 23,-117 67,-162 45,-45 100,-68 164,-68 63,0 118,23 164,68 25,24 42,51 52,81l-56 22c-8,-22 -22,-42 -40,-61 -33,-33 -73,-50 -120,-50 -47,0 -87,17 -120,50 -33,33 -50,73 -50,120 0,47 17,87 50,120 31,30 73,58 128,83 87,28 161,72 221,132 63,63 94,139 94,228 0,90 -32,166 -95,229 -63,63 -139,95 -228,95 -90,0 -166,-32 -228,-96 -51,-50 -81,-109 -91,-176l58 -21c6,59 31,111 76,154 51,52 114,77 186,77 72,0 135,-26 186,-77 51,-51 77,-113 77,-186 0,-72 -26,-134 -77,-185 -45,-45 -101,-81 -166,-108z"/>
   <path class="fil0" d="M16915 3652c165,0 309,-61 432,-185 123,-123 185,-276 185,-459 0,-183 -61,-336 -185,-461 -123,-123 -267,-185 -432,-185l-518 0 0 3 -357 0 0 -1245 903 0c185,0 341,63 466,187 125,125 188,272 188,441 0,170 -61,316 -184,436 44,11 111,63 204,156 185,184 276,407 276,668 0,258 -95,483 -287,674 -154,155 -349,249 -585,281l-536 0 0 -310 429 0zm-518 -2225l0 624 573 0c78,-8 138,-34 180,-77 58,-57 87,-133 87,-227 0,-92 -30,-169 -91,-229 -61,-61 -129,-91 -206,-91l-543 0zm2177 4l0 1288 352 0c166,0 311,-61 434,-185 124,-123 186,-276 186,-461 0,-183 -62,-336 -186,-458 -123,-123 -268,-184 -434,-184l-352 0zm334 1600l-334 0 0 931 -357 0 0 -2843 814 0c237,32 436,128 595,289 185,185 279,407 279,666 0,260 -95,485 -287,676 -126,128 -238,204 -336,227l639 986 -413 0 -598 -931zm1742 -1912l0 2843 -358 0 0 -2843 358 0zm1339 310l0 2533 -355 0 0 -2533 -680 0 0 -310 1713 0 0 310 -678 0zm1840 0l0 2533 -355 0 0 -2533 -680 0 0 -310 1713 0 0 310 -678 0zm2197 -349c413,0 763,143 1050,430 287,287 430,629 430,1026 0,399 -143,742 -430,1028 -287,286 -637,430 -1050,430 -412,0 -761,-144 -1048,-430 -287,-287 -430,-629 -430,-1028 0,-397 143,-738 430,-1026 287,-287 636,-430 1048,-430zm0 312c-303,0 -565,111 -786,333 -221,222 -332,492 -332,811 0,321 111,593 332,814 221,221 484,332 786,332 304,0 567,-111 788,-332 221,-221 332,-493 332,-814 0,-319 -111,-589 -332,-811 -221,-222 -484,-333 -788,-333z"/>
  </g>
 </g>
</svg>
